<?xml version="1.0" encoding="UTF-8" standalone="no"?>
<svg
   xmlns:dc="http://purl.org/dc/elements/1.1/"
   xmlns:cc="http://creativecommons.org/ns#"
   xmlns:rdf="http://www.w3.org/1999/02/22-rdf-syntax-ns#"
   xmlns:svg="http://www.w3.org/2000/svg"
   xmlns="http://www.w3.org/2000/svg"
   xmlns:sodipodi="http://sodipodi.sourceforge.net/DTD/sodipodi-0.dtd"
   xmlns:inkscape="http://www.inkscape.org/namespaces/inkscape"
   version="1.1"
   id="svg60"
   width="160"
   height="160"
   viewBox="0 0 160 160"
   sodipodi:docname="checked.png.svg"
   inkscape:version="1.0.1 (3bc2e813f5, 2020-09-07)">
  <metadata
     id="metadata66">
    <rdf:RDF>
      <cc:Work
         rdf:about="">
        <dc:format>image/svg+xml</dc:format>
        <dc:type
           rdf:resource="http://purl.org/dc/dcmitype/StillImage" />
        <dc:title></dc:title>
      </cc:Work>
    </rdf:RDF>
  </metadata>
  <defs
     id="defs64">
    <inkscape:path-effect
       effect="bspline"
       id="path-effect100"
       is_visible="true"
       lpeversion="1"
       weight="33.333333"
       steps="2"
       helper_size="0"
       apply_no_weight="true"
       apply_with_weight="true"
       only_selected="false" />
    <inkscape:path-effect
       effect="bspline"
       id="path-effect96"
       is_visible="true"
       lpeversion="1"
       weight="33.333333"
       steps="2"
       helper_size="0"
       apply_no_weight="true"
       apply_with_weight="true"
       only_selected="false" />
    <inkscape:path-effect
       effect="bspline"
       id="path-effect74"
       is_visible="true"
       lpeversion="1"
       weight="33.333333"
       steps="2"
       helper_size="0"
       apply_no_weight="true"
       apply_with_weight="true"
       only_selected="false" />
  </defs>
  <sodipodi:namedview
     pagecolor="#ffffff"
     bordercolor="#666666"
     borderopacity="1"
     objecttolerance="10"
     gridtolerance="10"
     guidetolerance="10"
     inkscape:pageopacity="0"
     inkscape:pageshadow="2"
     inkscape:window-width="1920"
     inkscape:window-height="1136"
     id="namedview62"
     showgrid="false"
     inkscape:zoom="3.2482718"
     inkscape:cx="38.719365"
     inkscape:cy="74.376449"
     inkscape:window-x="0"
     inkscape:window-y="27"
     inkscape:window-maximized="1"
     inkscape:current-layer="layer2" />
  <g
     inkscape:groupmode="layer"
     id="layer2"
     inkscape:label="Image 1">
    <path
       style="fill:#008f1f;stroke:none;stroke-width:1px;stroke-linecap:butt;stroke-linejoin:miter;stroke-opacity:1;fill-opacity:1"
       d="M 154.57712,46.037463 71.163704,131.94191 28.338106,85.733806 41.534952,72.522637 70.974969,97.669732 130.81366,23.903575 Z"
       id="path92" />
    <path
       style="fill:#000000;stroke:#000000;stroke-width:1px;stroke-linecap:butt;stroke-linejoin:miter;stroke-opacity:1"
       d="m 53.07187,40.98455 c -0.883924,0.718816 -2.651883,2.156541 -4.245515,3.692089 -1.593631,1.535549 -3.012699,3.168689 -4.385484,4.877892 -1.372784,1.709204 -2.699145,3.494275 -3.93609,5.485301 -1.236946,1.991025 -2.384331,4.187671 -3.225247,6.104028 -0.840916,1.916357 -1.375315,3.552082 -1.865952,5.270882 -0.490637,1.718801 -0.937506,3.52047 -1.263072,5.19236 -0.325565,1.671889 -0.529874,3.213757 -0.67628,4.492928 -0.146407,1.279171 -0.23486,2.294616 -0.323393,3.310988 0,0 -0.119037,1.014385 -0.119037,1.014385 0,0 -5.358991,5.290337 -5.358991,5.290337 0,0 7.771883,8.373787 7.771883,8.373787 0.959784,2.480368 1.920034,4.961941 2.738941,6.802883 0.818907,1.84095 1.496706,3.04244 2.142152,4.07415 0.645445,1.03171 1.258359,1.89363 2.130695,3.06049 0.872335,1.16686 2.003981,2.6386 3.123293,3.92931 1.119311,1.29071 2.226075,2.40042 3.471462,3.53213 1.245387,1.1317 2.629231,2.28542 4.192652,3.45626 1.56342,1.17084 3.306253,2.35885 4.615091,3.14056 1.308837,0.7817 2.183554,1.15733 2.905643,1.46562 0.722088,0.30828 1.290306,0.54871 1.859741,0.78966 0,0 1.237601,0.54206 1.237601,0.54206 0,0 7.33738,7.80261 7.33738,7.80261 0,0 4.613102,-4.69063 4.613102,-4.69063 2.348082,-0.007 4.69716,-0.014 6.854829,-0.086 2.15767,-0.072 4.124919,-0.20897 5.79817,-0.51972 1.673251,-0.31076 3.052753,-0.79515 4.796115,-1.43165 1.743362,-0.6365 3.850498,-1.42507 6.087342,-2.54678 2.236849,-1.12172 4.603529,-2.57654 7.021569,-4.36015 2.41805,-1.7836 4.8875,-3.89596 7.19322,-6.31363 2.30573,-2.41768 4.44778,-5.14072 5.91752,-7.4175 1.46973,-2.27678 2.26718,-4.1075 3.18074,-6.496581 0.91356,-2.389079 1.94317,-5.336459 2.55471,-7.580406 0.61155,-2.243946 0.80492,-3.784619 1.01616,-5.517337 0.21125,-1.732719 0.44036,-3.657384 0.53792,-5.248792 0.0975,-1.591408 0.0634,-2.849633 0.0494,-3.604474 -0.014,-0.754841 -0.008,-1.007198 -0.002,-1.25858 0,0 10.7373,-11.4906 10.7373,-11.4906 0.23702,0.957325 0.47433,1.915827 0.78245,3.672667 0.30812,1.756841 0.68744,4.313146 0.89363,6.750551 0.2062,2.437406 0.23939,4.755876 0.22926,6.865524 -0.0101,2.109649 -0.0635,4.010396 -0.32177,6.244678 -0.25822,2.234283 -0.72111,4.802134 -1.43785,7.554782 -0.71675,2.752648 -1.68724,5.690118 -2.66842,8.134548 -0.98118,2.44443 -1.97299,4.39591 -3.07127,6.28746 -1.09829,1.89155 -2.30302,3.72321 -3.62429,5.58397 -1.32126,1.86075 -2.75899,3.75055 -4.30345,5.55256 -1.54446,1.80201 -3.19564,3.51625 -4.92306,5.08291 -1.72742,1.56667 -3.53113,2.98581 -5.65274,4.40394 -2.12161,1.41812 -4.56117,2.83524 -6.78321,3.98302 -2.22205,1.14778 -4.22661,2.02619 -5.98807,2.75633 -1.761466,0.73014 -3.279792,1.31197 -5.059919,1.79982 -1.780126,0.48785 -3.822178,0.88164 -5.753371,1.20601 -1.931192,0.32436 -3.751477,0.57924 -5.331501,0.71945 -1.580025,0.14022 -2.919839,0.16565 -4.730137,0.12232 -1.810298,-0.0433 -4.091031,-0.15548 -6.241316,-0.37767 -2.150285,-0.2222 -4.170086,-0.55455 -5.96769,-0.97751 -1.797605,-0.42297 -3.372979,-0.93674 -4.761919,-1.4069 -1.388939,-0.47016 -2.59137,-0.89673 -3.856102,-1.29448 -1.264733,-0.39774 -2.591674,-0.76654 -3.797189,-1.31842 -1.205515,-0.55189 -2.289499,-1.28728 -3.869893,-2.24029 -1.580393,-0.95301 -3.657129,-2.12347 -5.543587,-3.47331 -1.886459,-1.34983 -3.582395,-2.87923 -5.19589,-4.41071 -1.613495,-1.53149 -3.144405,-3.06503 -4.74736,-4.91341 -1.602954,-1.84837 -3.277708,-4.01156 -4.456185,-5.66361 -1.178476,-1.65205 -1.860457,-2.79294 -2.782819,-4.43231 -0.922361,-1.63936 -2.08499,-3.77711 -2.979732,-5.84783 -0.894742,-2.07071 -1.521272,-4.07427 -2.157494,-6.228401 -0.636222,-2.154126 -1.282054,-4.45867 -1.740314,-6.452329 -0.458261,-1.993658 -0.728775,-3.676261 -0.937283,-5.159247 -0.208508,-1.482986 -0.354942,-2.766239 -0.36688,-4.939191 -0.01194,-2.172952 0.11078,-5.235314 0.29856,-7.508395 0.187781,-2.273081 0.440709,-3.756608 0.921657,-5.873949 0.480947,-2.117342 1.189921,-4.868248 1.84615,-7.116585 0.656229,-2.248336 1.259697,-3.993867 1.961989,-5.695774 0.702291,-1.701907 1.503363,-3.359923 2.50182,-5.107852 0.998458,-1.747929 2.194196,-3.58549 3.308581,-5.174497 1.114384,-1.589007 2.1473,-2.929267 3.287853,-4.310751 1.140553,-1.381485 2.388622,-2.804034 3.566962,-4.018979 1.178339,-1.214946 2.286769,-2.222106 3.691137,-3.430947 1.404368,-1.208842 3.104532,-2.619249 4.822821,-3.842894 1.718288,-1.223646 3.4544,-2.260364 4.94412,-3.07695 1.48972,-0.816586 2.732837,-1.412969 3.851623,-1.922902 1.118786,-0.509933 2.113114,-0.933383 3.666194,-1.514294 1.55308,-0.58091 3.664713,-1.319247 5.438645,-1.870784 1.773933,-0.551536 3.209944,-0.916267 4.926417,-1.22015 1.716473,-0.303882 3.713135,-0.546971 5.685086,-0.688293 1.971951,-0.141321 3.918958,-0.180954 6.100323,-0.132571 2.181364,0.04838 4.596876,0.1847 6.725586,0.434064 2.128709,0.249363 3.970395,0.611589 5.771304,1.07616 1.80091,0.464571 3.56089,1.031298 5.422944,1.68172 1.862059,0.650422 3.826069,1.384434 5.608499,2.187971 1.78243,0.803537 3.3832,1.676351 4.73709,2.428262 1.35388,0.751912 2.46081,1.382849 3.53946,2.160463 1.07865,0.777614 2.12906,1.701591 2.98564,2.417712 0.85657,0.716121 1.51922,1.224431 2.15622,1.75951 0.637,0.535079 1.2484,1.0968 1.65144,1.485097 0.40305,0.388298 0.59686,0.602013 0.79162,0.816781 0,0 -8.10822,10.186487 -8.10822,10.186487 -1.02372,-0.910445 -2.04638,-1.819954 -3.11494,-2.72644 -1.06857,-0.906487 -2.18197,-1.808926 -3.19152,-2.553245 -1.00955,-0.744319 -1.91526,-1.33034 -2.91569,-1.932629 -1.00042,-0.602289 -2.09553,-1.22073 -3.0839,-1.748924 -0.98837,-0.528195 -1.869955,-0.96604 -2.942153,-1.407058 -1.072198,-0.441018 -2.334944,-0.885009 -3.446078,-1.259202 -1.111133,-0.374194 -2.070584,-0.678525 -3.143619,-0.95072 -1.073035,-0.272195 -2.259545,-0.512092 -3.504825,-0.711295 -1.24528,-0.199203 -2.549203,-0.357602 -3.810814,-0.456748 -1.26161,-0.09915 -2.48076,-0.138934 -3.907735,-0.109845 -1.426975,0.02909 -3.06159,0.127142 -4.829227,0.368935 -1.767636,0.241794 -3.668014,0.627409 -5.435276,1.1073 -1.767262,0.479892 -3.401115,1.054075 -5.259778,1.772498 -1.858664,0.718423 -3.941944,1.581042 -5.447371,2.334534 -1.505426,0.753491 -2.432625,1.397746 -3.090043,1.830102 -0.657418,0.432355 -1.045141,0.652832 -1.239169,0.763165 -0.194028,0.110333 -0.194008,0.110303 -1.077932,0.82912 z"
       id="path98" />
  </g>
</svg>
